<?xml version="1.0" encoding="UTF-8"?> <svg xmlns="http://www.w3.org/2000/svg" xmlns:xlink="http://www.w3.org/1999/xlink" version="1.1" id="Layer_1" x="0px" y="0px" width="147px" height="63px" viewBox="0 0 147 63" xml:space="preserve"> <g> <g opacity="0.8"> <g> <path d="M65.046,21.95h6.549c1.793,0,3.333,0.642,4.62,1.927c1.287,1.284,1.931,2.822,1.931,4.611v16.375 c0,1.79-0.644,3.327-1.931,4.611s-2.826,1.928-4.62,1.928h-6.549c-1.806,0-3.349-0.639-4.629-1.917 c-1.28-1.279-1.92-2.821-1.92-4.622V28.488c0-1.803,0.64-3.343,1.92-4.622C61.697,22.589,63.24,21.95,65.046,21.95z M65.033,28.502v16.347c0,0.894,0.319,1.66,0.958,2.297s1.413,0.957,2.32,0.957c0.907,0,1.681-0.32,2.32-0.957 c0.638-0.637,0.958-1.403,0.958-2.297V28.502c0-0.895-0.32-1.66-0.958-2.298c-0.64-0.638-1.414-0.958-2.32-0.958 c-0.907,0-1.681,0.319-2.32,0.958S65.033,27.607,65.033,28.502z"></path> <path d="M84.663,51.401V21.95h13.1c1.793,0,3.332,0.644,4.618,1.928c1.287,1.286,1.931,2.822,1.931,4.612v1.782 c0,1.92-0.607,3.441-1.825,4.566c-1.217,1.126-2.792,1.688-4.724,1.688h3.265c0.896,0,1.668,0.322,2.314,0.969 c0.645,0.645,0.97,1.414,0.97,2.31v11.599h-6.549l-0.009-9.82c0-0.896-0.321-1.664-0.964-2.312 c-0.646-0.646-1.413-0.969-2.307-0.969h-3.271v13.101H84.663z M91.213,35.004h3.271c0.894,0,1.661-0.32,2.307-0.963 c0.643-0.641,0.964-1.406,0.964-2.295v-3.26c0-0.889-0.318-1.65-0.955-2.286c-0.639-0.636-1.409-0.954-2.315-0.954h-3.271V35.004 z"></path> <path d="M110.83,51.401V21.95h13.099c1.794,0,3.333,0.642,4.619,1.927c1.287,1.284,1.931,2.822,1.931,4.61v3.277 c0,1.803-0.641,3.343-1.92,4.621c-1.282,1.279-2.823,1.916-4.63,1.916h-6.549v13.101H110.83z M117.38,35.004h3.271 c0.894,0,1.662-0.32,2.306-0.963c0.644-0.641,0.965-1.406,0.965-2.295v-3.26c0-0.889-0.315-1.65-0.954-2.286 s-1.41-0.954-2.316-0.954h-3.271V35.004z"></path> </g> <g> <path d="M132.007,26.623v-4.476h-1.704v-0.603h4.085v0.603h-1.704v4.476H132.007z"></path> <path d="M139.254,26.623h-0.675v-4.376l-1.325,2.979h-0.407l-1.314-2.979v4.376h-0.636v-5.079h0.927l1.269,2.827l1.225-2.827 h0.938V26.623z"></path> </g> <path d="M39.575,53.843H25.644V28.949c0-3.595-0.104-5.757-0.311-6.483c-0.205-0.726-0.769-1.276-1.695-1.649 c-0.924-0.373-2.986-0.559-6.182-0.559h-1.37V14.81c6.721-1.217,11.827-3.72,15.313-7.509h8.175v24.2h13.942v-15.4 c0-8.364-6.844-15.208-15.208-15.208h-14.86c-8.365,0-15.209,6.844-15.209,15.208v31.29c0,8.363,6.844,15.209,15.209,15.209h14.86 c8.364,0,15.208-6.846,15.208-15.209V35.903H39.575V53.843z"></path> </g> <g> <path fill="#FF0000" d="M64.552,21.456h6.549c1.793,0,3.333,0.642,4.62,1.927c1.287,1.284,1.931,2.822,1.931,4.612v16.374 c0,1.79-0.644,3.327-1.931,4.611c-1.287,1.285-2.826,1.928-4.62,1.928h-6.549c-1.806,0-3.349-0.638-4.63-1.917 c-1.28-1.279-1.92-2.821-1.92-4.622V27.994c0-1.803,0.64-3.343,1.92-4.622C61.203,22.095,62.747,21.456,64.552,21.456z M64.539,28.008v16.347c0,0.894,0.319,1.66,0.958,2.298c0.639,0.637,1.413,0.956,2.32,0.956s1.681-0.319,2.32-0.956 c0.639-0.638,0.958-1.404,0.958-2.298V28.008c0-0.894-0.32-1.66-0.958-2.298c-0.639-0.638-1.413-0.958-2.32-0.958 s-1.681,0.319-2.32,0.958C64.858,26.348,64.539,27.114,64.539,28.008z"></path> <path fill="#FF0000" d="M84.169,50.907V21.456h13.099c1.794,0,3.333,0.644,4.619,1.928c1.287,1.285,1.931,2.822,1.931,4.611v1.782 c0,1.919-0.607,3.44-1.825,4.565c-1.217,1.126-2.791,1.688-4.725,1.688h3.266c0.896,0,1.668,0.323,2.314,0.969 c0.646,0.645,0.97,1.414,0.97,2.31v11.599h-6.55l-0.008-9.819c0-0.896-0.321-1.665-0.965-2.313 c-0.645-0.646-1.412-0.969-2.306-0.969h-3.271v13.101H84.169z M90.719,34.51h3.271c0.894,0,1.661-0.32,2.306-0.963 c0.644-0.641,0.965-1.406,0.965-2.295v-3.259c0-0.889-0.318-1.651-0.955-2.287c-0.639-0.636-1.409-0.954-2.315-0.954h-3.271V34.51 z"></path> <path fill="#FF0000" d="M110.336,50.907V21.456h13.099c1.794,0,3.333,0.642,4.619,1.927c1.287,1.284,1.931,2.822,1.931,4.61v3.277 c0,1.803-0.641,3.343-1.92,4.621c-1.282,1.278-2.823,1.916-4.63,1.916h-6.549v13.101H110.336z M116.886,34.51h3.271 c0.894,0,1.662-0.32,2.306-0.963c0.644-0.641,0.965-1.406,0.965-2.295v-3.259c0-0.889-0.315-1.651-0.954-2.287 s-1.41-0.954-2.316-0.954h-3.271V34.51z"></path> </g> <g> <path fill="#FF0000" d="M131.924,26.54v-4.475h-1.703v-0.604h4.084v0.604h-1.704v4.475H131.924z"></path> <path fill="#FF0000" d="M139.172,26.54h-0.676v-4.375l-1.324,2.978h-0.407l-1.314-2.978v4.375h-0.636v-5.078h0.927l1.269,2.827 l1.225-2.827h0.938V26.54z"></path> </g> <path fill="#FF0000" d="M39.081,53.349H25.149V28.455c0-3.595-0.104-5.756-0.31-6.483c-0.206-0.726-0.77-1.276-1.695-1.649 c-0.924-0.373-2.986-0.559-6.182-0.559h-1.37v-5.447c6.721-1.217,11.827-3.72,15.313-7.508h8.175v24.2h13.943v-15.4 c0-8.364-6.844-15.208-15.208-15.208h-14.86c-8.364,0-15.208,6.844-15.208,15.208v31.291c0,8.362,6.844,15.208,15.208,15.208h14.86 c8.364,0,15.208-6.846,15.208-15.208V35.409H39.081V53.349z"></path> <path fill="#DA0C2A" d="M53.023,35.409"></path> <path fill="#DA0C2A" d="M53.023,31.007"></path> <path fill="#DA0C2A" d="M39.081,31.007"></path> <path fill="#DA0C2A" d="M39.081,35.409"></path> <path fill="#DA0C2A" d="M53.518,35.903"></path> <path fill="#DA0C2A" d="M53.518,31.501"></path> <path fill="#DA0C2A" d="M39.575,31.501"></path> <path fill="#DA0C2A" d="M39.575,35.903"></path> </g> </svg> 